<svg width="14" height="12" viewBox="0 0 14 12" fill="none" xmlns="http://www.w3.org/2000/svg">
<path fill-rule="evenodd" clip-rule="evenodd" d="M1 0.0025117C0.441133 0.0391364 0 0.471732 0 1C0 1.52827 0.441133 1.96086 1 1.99749C0.974593 1.99915 0.948942 2 0.923078 2H1.07692C1.05106 2 1.02541 1.99915 1 1.99749C1.55887 1.96086 2 1.52827 2 1C2 0.471732 1.55887 0.0391364 1 0.0025117ZM1 0.0025117C1.02541 0.000846641 1.05106 0 1.07692 0H0.923078C0.948942 0 0.974593 0.000846641 1 0.0025117ZM5.07692 0C4.48215 0 4 0.447715 4 1C4 1.55228 4.48215 2 5.07692 2H12.9231C13.5178 2 14 1.55228 14 1C14 0.447715 13.5178 0 12.9231 0H5.07692ZM0 6C0 5.47173 0.441133 5.03914 1 5.00251C1.55887 5.03914 2 5.47173 2 6C2 6.52827 1.55887 6.96086 1 6.99749C0.441133 6.96086 0 6.52827 0 6ZM1 6.99749C1.02541 6.99915 1.05106 7 1.07692 7H0.923078C0.948942 7 0.974593 6.99915 1 6.99749ZM1 5.00251C0.974593 5.00085 0.948942 5 0.923078 5H1.07692C1.05106 5 1.02541 5.00085 1 5.00251ZM1 10.0025C0.441133 10.0391 0 10.4717 0 11C0 11.5283 0.441133 11.9609 1 11.9975C0.974593 11.9992 0.948942 12 0.923078 12H1.07692C1.05106 12 1.02541 11.9992 1 11.9975C1.55887 11.9609 2 11.5283 2 11C2 10.4717 1.55887 10.0391 1 10.0025ZM1 10.0025C1.02541 10.0008 1.05106 10 1.07692 10H0.923078C0.948942 10 0.974593 10.0008 1 10.0025ZM4 6C4 5.44772 4.48216 5 5.07692 5H12.9231C13.5178 5 14 5.44772 14 6C14 6.55228 13.5178 7 12.9231 7H5.07692C4.48216 7 4 6.55228 4 6ZM5.07692 10C4.48215 10 4 10.4477 4 11C4 11.5523 4.48215 12 5.07692 12H12.9231C13.5178 12 14 11.5523 14 11C14 10.4477 13.5178 10 12.9231 10H5.07692Z" fill="#2E2E2E"/>
</svg>
