<svg width="30" height="30" viewBox="0 0 30 30" fill="none" xmlns="http://www.w3.org/2000/svg">
<rect y="-1.90735e-06" width="30" height="30" rx="8" fill="#FFD3C2"/>
<path fill-rule="evenodd" clip-rule="evenodd" d="M11.6877 17.7628C11.3105 17.3942 11.3105 16.7873 11.6877 16.4186C12.0529 16.0617 12.6363 16.0617 13.0015 16.4186L14.0492 17.4426L14.0492 9.95077C14.0492 9.42568 14.4749 9 15 9C15.5251 9 15.9508 9.42567 15.9508 9.95077L15.9508 17.4426L16.9985 16.4186C17.3637 16.0617 17.9471 16.0617 18.3123 16.4186C18.6895 16.7873 18.6895 17.3942 18.3123 17.7628L15.699 20.3169C15.3104 20.6967 14.6896 20.6967 14.301 20.3169L11.6877 17.7628Z" fill="#E04F1A"/>
</svg>
