<svg width="22" height="22" viewBox="0 0 22 22" fill="none" xmlns="http://www.w3.org/2000/svg">
<g opacity="0.2">
<path d="M5.95833 1.92502C5.95833 1.65759 6.06457 1.40112 6.25367 1.21202C6.44277 1.02292 6.69924 0.916687 6.96667 0.916687H15.0333C15.3008 0.916687 15.5572 1.02292 15.7463 1.21202C15.9354 1.40112 16.0417 1.65759 16.0417 1.92502C16.0417 2.19245 15.9354 2.44892 15.7463 2.63802C15.5572 2.82712 15.3008 2.93335 15.0333 2.93335H6.96667C6.69924 2.93335 6.44277 2.82712 6.25367 2.63802C6.06457 2.44892 5.95833 2.19245 5.95833 1.92502ZM21.0833 5.95835C21.0833 6.22578 20.9771 6.48225 20.788 6.67135C20.5989 6.86045 20.3424 6.96669 20.075 6.96669H18.0583V17.05C18.0583 18.1197 17.6334 19.1456 16.877 19.902C16.1206 20.6584 15.0947 21.0834 14.025 21.0834H7.975C6.90529 21.0834 5.8794 20.6584 5.123 19.902C4.36661 19.1456 3.94167 18.1197 3.94167 17.05V6.96669H1.925C1.65757 6.96669 1.4011 6.86045 1.212 6.67135C1.0229 6.48225 0.916668 6.22578 0.916668 5.95835C0.916668 5.69093 1.0229 5.43445 1.212 5.24535C1.4011 5.05625 1.65757 4.95002 1.925 4.95002H20.075C20.3424 4.95002 20.5989 5.05625 20.788 5.24535C20.9771 5.43445 21.0833 5.69093 21.0833 5.95835ZM16.0417 6.96669H5.95833V17.05C5.95833 17.5849 6.1708 18.0978 6.549 18.476C6.9272 18.8542 7.44015 19.0667 7.975 19.0667H14.025C14.5599 19.0667 15.0728 18.8542 15.451 18.476C15.8292 18.0978 16.0417 17.5849 16.0417 17.05V6.96669ZM8.98333 17.05C9.25076 17.05 9.50723 16.9438 9.69633 16.7547C9.88543 16.5656 9.99167 16.3091 9.99167 16.0417V9.99169C9.99167 9.72426 9.88543 9.46779 9.69633 9.27869C9.50723 9.08959 9.25076 8.98335 8.98333 8.98335C8.71591 8.98335 8.45943 9.08959 8.27033 9.27869C8.08124 9.46779 7.975 9.72426 7.975 9.99169V16.0417C7.975 16.3091 8.08124 16.5656 8.27033 16.7547C8.45943 16.9438 8.71591 17.05 8.98333 17.05ZM13.0167 17.05C13.2841 17.05 13.5406 16.9438 13.7297 16.7547C13.9188 16.5656 14.025 16.3091 14.025 16.0417V9.99169C14.025 9.72426 13.9188 9.46779 13.7297 9.27869C13.5406 9.08959 13.2841 8.98335 13.0167 8.98335C12.7492 8.98335 12.4928 9.08959 12.3037 9.27869C12.1146 9.46779 12.0083 9.72426 12.0083 9.99169V16.0417C12.0083 16.3091 12.1146 16.5656 12.3037 16.7547C12.4928 16.9438 12.7492 17.05 13.0167 17.05Z" fill="#2E2E2E"/>
</g>
</svg>
